<mxfile host="65bd71144e">
    <diagram id="KPhMTZi5_pGSBdDeJnpC" name="Page-1">
        <mxGraphModel dx="1471" dy="2090" grid="1" gridSize="10" guides="1" tooltips="1" connect="1" arrows="1" fold="1" page="1" pageScale="1" pageWidth="850" pageHeight="1100" math="0" shadow="0">
            <root>
                <mxCell id="0"/>
                <mxCell id="1" parent="0"/>
                <mxCell id="4" value="" style="whiteSpace=wrap;html=1;" parent="1" vertex="1">
                    <mxGeometry width="1250" height="1100" as="geometry"/>
                </mxCell>
                <mxCell id="21" value="" style="whiteSpace=wrap;html=1;" vertex="1" parent="1">
                    <mxGeometry x="760" y="30" width="460" height="1040" as="geometry"/>
                </mxCell>
                <mxCell id="23" value="" style="whiteSpace=wrap;html=1;fontSize=16;" vertex="1" parent="1">
                    <mxGeometry x="790" y="60" width="400" height="320" as="geometry"/>
                </mxCell>
                <mxCell id="22" value="Class" style="whiteSpace=wrap;html=1;fontSize=18;fontStyle=1" vertex="1" parent="1">
                    <mxGeometry x="890" y="80" width="200" height="40" as="geometry"/>
                </mxCell>
                <mxCell id="26" value="Class description and extras" style="whiteSpace=wrap;html=1;fontSize=16;" vertex="1" parent="1">
                    <mxGeometry x="790" y="430" width="400" height="230" as="geometry"/>
                </mxCell>
                <mxCell id="28" value="Race" style="whiteSpace=wrap;html=1;fontSize=18;fontStyle=1" vertex="1" parent="1">
                    <mxGeometry x="890" y="450" width="200" height="40" as="geometry"/>
                </mxCell>
                <mxCell id="31" value="&lt;font&gt;Stats&lt;/font&gt;" style="whiteSpace=wrap;html=1;verticalAlign=top;fontSize=20;fontStyle=1" vertex="1" parent="1">
                    <mxGeometry x="790" y="710" width="400" height="330" as="geometry"/>
                </mxCell>
                <mxCell id="32" value="Health" style="whiteSpace=wrap;html=1;fontSize=16;fillColor=#f8cecc;strokeColor=#b85450;" vertex="1" parent="1">
                    <mxGeometry x="925" y="980" width="130" height="20" as="geometry"/>
                </mxCell>
                <mxCell id="33" value="Skills" style="whiteSpace=wrap;html=1;" vertex="1" parent="1">
                    <mxGeometry x="1000" y="760" width="160" height="20" as="geometry"/>
                </mxCell>
                <mxCell id="34" value="Mana" style="whiteSpace=wrap;html=1;fontSize=16;fillColor=#dae8fc;strokeColor=#6c8ebf;" vertex="1" parent="1">
                    <mxGeometry x="925" y="1000" width="130" height="20" as="geometry"/>
                </mxCell>
                <mxCell id="35" value="Class Resource" style="whiteSpace=wrap;html=1;fontSize=16;fillColor=#fff2cc;strokeColor=#d6b656;" vertex="1" parent="1">
                    <mxGeometry x="925" y="1020" width="130" height="20" as="geometry"/>
                </mxCell>
                <mxCell id="36" value="One Handed" style="whiteSpace=wrap;html=1;" vertex="1" parent="1">
                    <mxGeometry x="1025" y="799" width="110" height="20" as="geometry"/>
                </mxCell>
                <mxCell id="37" value="Dodging" style="whiteSpace=wrap;html=1;" vertex="1" parent="1">
                    <mxGeometry x="1025" y="829" width="110" height="20" as="geometry"/>
                </mxCell>
                <mxCell id="38" value="Shields" style="whiteSpace=wrap;html=1;" vertex="1" parent="1">
                    <mxGeometry x="1025" y="860" width="110" height="20" as="geometry"/>
                </mxCell>
                <mxCell id="39" value="Etc" style="whiteSpace=wrap;html=1;" vertex="1" parent="1">
                    <mxGeometry x="1025" y="890" width="110" height="20" as="geometry"/>
                </mxCell>
                <mxCell id="40" value="Attributes" style="whiteSpace=wrap;html=1;" vertex="1" parent="1">
                    <mxGeometry x="810" y="740" width="160" height="20" as="geometry"/>
                </mxCell>
                <mxCell id="41" value="Str" style="whiteSpace=wrap;html=1;" vertex="1" parent="1">
                    <mxGeometry x="835" y="770" width="110" height="20" as="geometry"/>
                </mxCell>
                <mxCell id="42" value="Dex" style="whiteSpace=wrap;html=1;" vertex="1" parent="1">
                    <mxGeometry x="835" y="800" width="110" height="20" as="geometry"/>
                </mxCell>
                <mxCell id="43" value="Agi" style="whiteSpace=wrap;html=1;" vertex="1" parent="1">
                    <mxGeometry x="835" y="830" width="110" height="20" as="geometry"/>
                </mxCell>
                <mxCell id="44" value="Con" style="whiteSpace=wrap;html=1;" vertex="1" parent="1">
                    <mxGeometry x="835" y="860" width="110" height="20" as="geometry"/>
                </mxCell>
                <mxCell id="45" value="Int" style="whiteSpace=wrap;html=1;" vertex="1" parent="1">
                    <mxGeometry x="835" y="890" width="110" height="20" as="geometry"/>
                </mxCell>
                <mxCell id="46" value="Wis" style="whiteSpace=wrap;html=1;" vertex="1" parent="1">
                    <mxGeometry x="835" y="920" width="110" height="20" as="geometry"/>
                </mxCell>
                <mxCell id="47" value="Mys" style="whiteSpace=wrap;html=1;" vertex="1" parent="1">
                    <mxGeometry x="835" y="950" width="110" height="20" as="geometry"/>
                </mxCell>
                <mxCell id="48" value="" style="whiteSpace=wrap;html=1;" vertex="1" parent="1">
                    <mxGeometry x="30" y="30" width="690" height="380" as="geometry"/>
                </mxCell>
                <mxCell id="49" value="" style="whiteSpace=wrap;html=1;" vertex="1" parent="1">
                    <mxGeometry x="30" y="680" width="690" height="390" as="geometry"/>
                </mxCell>
                <mxCell id="50" value="" style="whiteSpace=wrap;html=1;" vertex="1" parent="1">
                    <mxGeometry x="50" y="100" width="650" height="290" as="geometry"/>
                </mxCell>
                <mxCell id="51" value="Class Select" style="whiteSpace=wrap;html=1;fontSize=18;fontStyle=1" vertex="1" parent="1">
                    <mxGeometry x="235" y="50" width="280" height="30" as="geometry"/>
                </mxCell>
                <mxCell id="52" value="" style="whiteSpace=wrap;html=1;" vertex="1" parent="1">
                    <mxGeometry x="802.5" y="130" width="375" height="240" as="geometry"/>
                </mxCell>
                <mxCell id="53" value="Description" style="whiteSpace=wrap;html=1;" vertex="1" parent="1">
                    <mxGeometry x="845" y="140" width="295" height="100" as="geometry"/>
                </mxCell>
                <mxCell id="56" value="" style="whiteSpace=wrap;html=1;" vertex="1" parent="1">
                    <mxGeometry x="843.75" y="280" width="297.5" height="70" as="geometry"/>
                </mxCell>
                <mxCell id="57" value="abilities" style="whiteSpace=wrap;html=1;" vertex="1" parent="1">
                    <mxGeometry x="1060" y="285" width="60" height="60" as="geometry"/>
                </mxCell>
                <mxCell id="58" value="skills" style="whiteSpace=wrap;html=1;" vertex="1" parent="1">
                    <mxGeometry x="960" y="285" width="60" height="60" as="geometry"/>
                </mxCell>
                <mxCell id="59" value="attributes" style="whiteSpace=wrap;html=1;" vertex="1" parent="1">
                    <mxGeometry x="860" y="285" width="60" height="60" as="geometry"/>
                </mxCell>
                <mxCell id="61" value="class-main&lt;div&gt;&lt;span style=&quot;white-space: pre;&quot;&gt;&#x9;&lt;/span&gt;class-heading&lt;br&gt;&lt;/div&gt;&lt;div&gt;&lt;span style=&quot;white-space: pre;&quot;&gt;&#x9;&lt;/span&gt;class-select&lt;br&gt;&lt;/div&gt;&lt;div&gt;&lt;span style=&quot;white-space: pre;&quot;&gt;&#x9;&lt;/span&gt;&lt;span style=&quot;white-space: pre;&quot;&gt;&#x9;&lt;/span&gt;clickable-class&lt;br&gt;&lt;/div&gt;" style="whiteSpace=wrap;html=1;verticalAlign=top;align=left;" vertex="1" parent="1">
                    <mxGeometry x="230" y="-260" width="180" height="150" as="geometry"/>
                </mxCell>
            </root>
        </mxGraphModel>
    </diagram>
</mxfile>